<svg width="169.45863" height="165.37944" xmlns="http://www.w3.org/2000/svg">

 <g>
  <title>background</title>
  <rect fill="none" id="canvas_background" height="167.37944" width="171.45863" y="-1" x="-1"/>
 </g>
 <g>
  <title>Layer 1</title>
  <line id="svg_3" stroke="rgb(255,255,255)" stroke-width="14" y2="20.045858" x2="111.1056" y1="75.007681" x1="70.444444"/>
  <line id="svg_4" stroke="rgb(255,255,255)" stroke-width="14" y2="142.388258" x2="142.2096" y1="114.591014" x1="89.888889"/>
  <circle id="svg_5" transform="matrix(18.518518518518526,0,0,18.518518518518526,340.1055999999996,368.04585835206825) " fill="rgb(255,255,255)" r="1" cy="-18.792" cx="-12.366"/>
  <circle id="svg_6" transform="matrix(18.518518518518515,0,0,18.518518518518515,370.10559999999964,490.38825835206836) " fill="rgb(255,255,255)" r="1" cy="-18.792" cx="-12.366"/>
  <path id="svg_7" fill="#fff" stroke-miterlimit="10" fill-rule="evenodd" d="m6,95.5c0,-26.76788 21.50808,-48.5 48,-48.5c26.49192,0 48,21.73212 48,48.5c0,26.76788 -21.50808,48.5 -48,48.5c-26.49192,0 -48,-21.73212 -48,-48.5zm75.23122,-2.34308l-37.23484,-18.65301c-1.12773,-0.57398 -2.47374,-0.51178 -3.54831,0.14703c-1.08016,0.65598 -1.73217,1.82656 -1.73217,3.08197l0,37.31733c0,1.25258 0.65201,2.42034 1.73217,3.07915c0.58206,0.35626 1.24247,0.53722 1.91128,0.53722c0.56247,0 1.12214,-0.13006 1.63983,-0.39019l37.23484,-18.65867c1.22567,-0.61639 2.00362,-1.86049 2.00362,-3.23183c0,-1.37133 -0.78074,-2.61261 -2.00642,-3.229z"/>
 </g>
</svg>